<svg xmlns="http://www.w3.org/2000/svg" width="640" height="320" fill="#fff" font-family="Segoe UI, system-ui, sans-serif" viewBox="0 0 1280 640">
  <defs>
    <linearGradient id="a" x1="50%" x2="50%" y1="0%" y2="100%" gradientTransform="rotate(150 .5 .5)">
      <stop offset="0%" stop-color="hsl(315, 100%, 52%)"/>
      <stop offset="100%" stop-color="hsl(227, 100%, 30%)"/>
    </linearGradient>
    <filter id="b" width="140%" height="140%" x="-20%" y="-20%" color-interpolation-filters="sRGB" filterUnits="objectBoundingBox" primitiveUnits="userSpaceOnUse">
      <feTurbulence width="100%" height="100%" x="0%" y="0%" baseFrequency="0.005 0.003" result="turbulence" seed="2" stitchTiles="stitch" type="fractalNoise"/>
      <feGaussianBlur width="100%" height="100%" x="0%" y="0%" in="turbulence" result="blur" stdDeviation="90 0"/>
      <feBlend width="100%" height="100%" x="0%" y="0%" in="SourceGraphic" in2="blur" mode="color-dodge" result="blend"/>
    </filter>
  </defs>
  <path fill="url(#a)" d="M0 0h1280v640H0z" filter="url(#b)"/>
  <circle cx="260" cy="320" r="200" fill="hsl(53, 100%, 60%)"/>
  <g fill="#333" stroke="#333" transform="matrix(.5 0 0 .5 74 -28)">
    <rect width="451.111" height="278.802" x="153.543" y="557.387" ry="10"/>
    <path d="M351.79 322.955c-12.984 16.152-.305 38.543 16.752 50.533s43.351 23.065 30.043 46.38-44.352-1.394-58.148-17.306c-30.272-21.601-27.937 4.268-9.984 10.641 11.364 48.223 54.17 63.89 99.283 36.432 21.56-16.416 23.122-32.812 22.844-54.687-11.012-26.237-32.357-28.645-44.58-40.15-12.223-11.506-3.28-23.225 1-31.564z"/>
    <path stroke-width="15" d="m365.675 414.106-58.571 151.428m71.428-145.714-21.428 152.857m32.856-158.571 14.287 158.571m-8.572-161.429 60 151.429"/>
  </g>
  <text x="34" y="148" fill="hsl(53, 100%, 60%)" font-size="64" font-weight="bold" transform="matrix(1.6 0 0 1.6 120 120)">
    OCI
  </text>
  <text x="241" y="148" font-size="100" font-weight="bold" transform="matrix(1.6 0 0 1.6 120 120)">
    freePaaS
  </text>
  <text x="244" y="192" font-size="24" font-style="italic" transform="matrix(1.6 0 0 1.6 120 120)">
    Secure, convenient, fast &amp; free forever!
  </text>
</svg>
